<svg xmlns="http://www.w3.org/2000/svg" version="1.1" xmlns:xlink="http://www.w3.org/1999/xlink" viewBox="0 0 200 200"><rect width="200" height="200" fill="url('#gradient')"></rect><defs><linearGradient id="gradient" gradientTransform="rotate(245 0.5 0.5)"><stop offset="0%" stop-color="#000000"></stop><stop offset="100%" stop-color="#6b5215"></stop></linearGradient></defs><g><g fill="#277f7e" transform="matrix(1.7771607080874696,0,0,1.7771607080874696,-1.9061453982551484,113.15333269338399)" stroke="#c08e51" stroke-width="0.2"><path d="M4.50-14.22L4.50-2.64L10.47-2.64L10.47 0L1.07 0L1.07-14.22L4.50-14.22ZM11.36-4.82L11.35-5.38Q11.35-6.96 11.96-8.20Q12.58-9.43 13.73-10.10Q14.88-10.76 16.44-10.76L16.44-10.76Q18.81-10.76 20.18-9.29Q21.54-7.82 21.54-5.29L21.54-5.29L21.54-5.18Q21.54-2.71 20.17-1.25Q18.80 0.20 16.46 0.20L16.46 0.20Q14.20 0.20 12.83-1.16Q11.46-2.51 11.36-4.82L11.36-4.82ZM14.65-5.77L14.64-5.18Q14.64-3.71 15.10-3.03Q15.56-2.34 16.46-2.34L16.46-2.34Q18.21-2.34 18.25-5.05L18.25-5.05L18.25-5.38Q18.25-8.22 16.44-8.22L16.44-8.22Q14.79-8.22 14.65-5.77L14.65-5.77ZM29.44-10.64L29.38-7.59L28.30-7.67Q26.75-7.67 26.31-6.69L26.31-6.69L26.31 0L23.02 0L23.02-10.57L26.10-10.57L26.21-9.21Q27.04-10.76 28.53-10.76L28.53-10.76Q29.05-10.76 29.44-10.64L29.44-10.64ZM29.97-5.36L29.97-5.36Q29.97-7.87 31.05-9.32Q32.14-10.76 34.08-10.76L34.08-10.76Q35.50-10.76 36.46-9.65L36.46-9.65L36.46-15L39.77-15L39.77 0L36.81 0L36.64-1.13Q35.63 0.20 34.06 0.20L34.06 0.20Q32.18 0.20 31.07-1.25Q29.97-2.70 29.97-5.36ZM33.27-5.76L33.26-5.16Q33.26-2.34 34.90-2.34L34.90-2.34Q36.00-2.34 36.46-3.26L36.46-3.26L36.46-7.29Q36.02-8.22 34.92-8.22L34.92-8.22Q33.40-8.22 33.27-5.76L33.27-5.76ZM54.10-3.78L54.10-3.78Q54.10-4.53 53.57-4.95Q53.04-5.37 51.70-5.82Q50.36-6.27 49.51-6.69L49.51-6.69Q46.75-8.05 46.75-10.42L46.75-10.42Q46.75-11.60 47.44-12.50Q48.13-13.41 49.38-13.91Q50.64-14.41 52.22-14.41L52.22-14.41Q53.75-14.41 54.97-13.87Q56.18-13.32 56.86-12.31Q57.53-11.30 57.53-10L57.53-10L54.11-10Q54.11-10.87 53.58-11.35Q53.05-11.83 52.14-11.83L52.14-11.83Q51.22-11.83 50.69-11.42Q50.16-11.02 50.16-10.39L50.16-10.39Q50.16-9.84 50.74-9.40Q51.33-8.96 52.80-8.48Q54.28-8.01 55.22-7.46L55.22-7.46Q57.53-6.13 57.53-3.80L57.53-3.80Q57.53-1.93 56.12-0.87Q54.72 0.20 52.27 0.20L52.27 0.20Q50.54 0.20 49.14-0.42Q47.73-1.04 47.03-2.12Q46.32-3.20 46.32-4.61L46.32-4.61L49.76-4.61Q49.76-3.47 50.35-2.92Q50.94-2.38 52.27-2.38L52.27-2.38Q53.12-2.38 53.61-2.75Q54.10-3.12 54.10-3.78ZM65.53 0L65.43-1.14Q64.38 0.20 62.61 0.20L62.61 0.20Q60.87 0.20 59.98-0.82Q59.08-1.83 59.08-3.72L59.08-3.72L59.08-10.57L62.37-10.57L62.37-3.70Q62.37-2.34 63.69-2.34L63.69-2.34Q64.82-2.34 65.30-3.15L65.30-3.15L65.30-10.57L68.61-10.57L68.61 0L65.53 0ZM80.22-5.36L80.22-5.20Q80.22-2.60 79.15-1.20Q78.08 0.20 76.12 0.20L76.12 0.20Q74.51 0.20 73.53-1.08L73.53-1.08L73.39 0L70.44 0L70.44-15L73.73-15L73.73-9.72Q74.65-10.76 76.10-10.76L76.10-10.76Q78.08-10.76 79.15-9.35Q80.22-7.93 80.22-5.36L80.22-5.36ZM76.92-5.40L76.92-5.40Q76.92-6.92 76.52-7.57Q76.11-8.22 75.27-8.22L75.27-8.22Q74.16-8.22 73.73-7.37L73.73-7.37L73.73-3.17Q74.15-2.33 75.29-2.33L75.29-2.33Q76.46-2.33 76.77-3.47L76.77-3.47Q76.92-4.02 76.92-5.40ZM81.27-4.82L81.26-5.38Q81.26-6.96 81.88-8.20Q82.49-9.43 83.64-10.10Q84.79-10.76 86.35-10.76L86.35-10.76Q88.72-10.76 90.09-9.29Q91.46-7.82 91.46-5.29L91.46-5.29L91.46-5.18Q91.46-2.71 90.08-1.25Q88.71 0.20 86.37 0.20L86.37 0.20Q84.11 0.20 82.74-1.16Q81.38-2.51 81.27-4.82L81.27-4.82ZM84.56-5.77L84.55-5.18Q84.55-3.71 85.01-3.03Q85.47-2.34 86.37-2.34L86.37-2.34Q88.13-2.34 88.16-5.05L88.16-5.05L88.16-5.38Q88.16-8.22 86.35-8.22L86.35-8.22Q84.70-8.22 84.56-5.77L84.56-5.77ZM92.49-5.36L92.49-5.36Q92.49-7.87 93.57-9.32Q94.66-10.76 96.60-10.76L96.60-10.76Q98.02-10.76 98.98-9.65L98.98-9.65L98.98-15L102.29-15L102.29 0L99.33 0L99.16-1.13Q98.14 0.20 96.58 0.20L96.58 0.20Q94.70 0.20 93.59-1.25Q92.49-2.70 92.49-5.36ZM95.79-5.76L95.78-5.16Q95.78-2.34 97.42-2.34L97.42-2.34Q98.52-2.34 98.98-3.26L98.98-3.26L98.98-7.29Q98.54-8.22 97.44-8.22L97.44-8.22Q95.92-8.22 95.79-5.76L95.79-5.76ZM107.37-15L107.37-9.43Q108.43-10.76 110.07-10.76L110.07-10.76Q111.82-10.76 112.71-9.73Q113.59-8.69 113.61-6.67L113.61-6.67L113.61 0L110.31 0L110.31-6.59Q110.31-7.43 109.97-7.83Q109.63-8.22 108.81-8.22L108.81-8.22Q107.79-8.22 107.37-7.58L107.37-7.58L107.37 0L104.08 0L104.08-15L107.37-15Z"></path></g></g></svg>